<?xml version="1.0" encoding="utf-8"?>
<!-- Generator: Adobe Illustrator 16.0.0, SVG Export Plug-In . SVG Version: 6.00 Build 0)  -->
<!DOCTYPE svg PUBLIC "-//W3C//DTD SVG 1.1//EN" "http://www.w3.org/Graphics/SVG/1.1/DTD/svg11.dtd">
<svg version="1.1" id="Layer_1" xmlns="http://www.w3.org/2000/svg" xmlns:xlink="http://www.w3.org/1999/xlink" x="0px" y="0px"
	 width="530.5px" height="611.5px" viewBox="0 0 530.5 611.5" enable-background="new 0 0 530.5 611.5" xml:space="preserve">
<g>
	<g>
		<path fill-rule="evenodd" clip-rule="evenodd" fill="#BBBBBB" d="M480.8,611.5c16.5,0,33.4-1.6,49.7-3.8
			c-113.6-21.8-160.2-113.5-215.2-206.1c18.2,0.2,36.5-3.2,49.1-17.5c-23.2-9.6-33.9-44-45.4-64.8c66.9-13.8,122.1-72.2,126.2-141.9
			c4.3-74.8-52.2-145-115.1-177.4c47.6,41.6,85.3,101.7,68.3,167.5c-20.5,79.3-95.2,108.6-169,113.6c15,22.6,28.6,46.5,33.9,73.4
			c-59-37-139.5-63.6-201.5-17.5C4,380-16.4,457.9,14.1,523c27,57.5,100.5,103.1,163.7,78.2c67.2-26.5,86.4-106.8,21.9-147.9
			c11.5-17.3,29.3-25.2,32.8-46.8c-11.5,5.2-15.8,17.7-30.2,21.6c-21.6,5.8-43.6,6.9-60.4,24c-28.1,28.5,5.8,87.2,36,52
			c9.2,25.8-4.1,45.3-31.2,48c-36.8,3.7-64.4-28.7-70.2-62.4c-12.2-70.5,50.1-124.7,118.9-107.5c70.4,17.6,95.9,101,134.2,153.9
			C366.1,586.2,419.2,611.5,480.8,611.5"/>
	</g>
	<g>
		<path fill="#D6B94A" d="M480.8,611.5c16.5,0,33.4-1.6,49.7-3.8c-113.6-21.8-160.2-113.5-215.2-206.1c18.2,0.2,36.5-3.2,49.1-17.5
			c-23.2-9.6-33.9-44-45.4-64.8c66.9-13.8,122.1-72.2,126.2-141.9c4.3-74.8-52.2-145-115.1-177.4c47.6,41.6,85.3,101.7,68.3,167.5
			c-20.5,79.3-95.2,108.6-169,113.6c15,22.6,28.6,46.5,33.9,73.4c-59-37-139.5-63.6-201.5-17.5C4,380-16.4,457.9,14.1,523
			c27,57.5,100.5,103.1,163.7,78.2c67.2-26.5,86.4-106.8,21.9-147.9c11.5-17.3,29.3-25.2,32.8-46.8c-11.5,5.2-15.8,17.7-30.2,21.6
			c-21.6,5.8-43.6,6.9-60.4,24c-28.1,28.5,5.8,87.2,36,52c9.2,25.8-4.1,45.3-31.2,48c-36.8,3.7-64.4-28.7-70.2-62.4
			c-12.2-70.5,50.1-124.7,118.9-107.5c70.4,17.6,95.9,101,134.2,153.9C366.1,586.2,419.2,611.5,480.8,611.5"/>
	</g>
</g>
</svg>
